<?xml version="1.0" standalone="no"?>
<!DOCTYPE svg PUBLIC "-//W3C//DTD SVG 20010904//EN"
 "http://www.w3.org/TR/2001/REC-SVG-20010904/DTD/svg10.dtd">
<svg version="1.0" xmlns="http://www.w3.org/2000/svg"
 width="698.000000pt" height="698.000000pt" viewBox="0 0 698.000000 698.000000"
 preserveAspectRatio="xMidYMid meet">
<metadata>
Created by potrace 1.11, written by Peter Selinger 2001-2013
</metadata>
<g transform="translate(0.000000,698.000000) scale(0.100000,-0.100000)"
fill="#000000" stroke="none">
<path d="M2722 6369 c-139 -50 -429 -120 -597 -144 -239 -34 -245 -37 -245
-120 0 -84 17 -92 196 -94 134 -2 137 -2 192 -15 44 -10 58 -44 67 -156 4 -47
8 -103 10 -125 3 -36 8 -204 20 -778 3 -135 1 -177 -8 -174 -317 137 -564 184
-792 150 -175 -25 -273 -67 -595 -250 -326 -187 -418 -257 -510 -393 -203
-299 -277 -766 -188 -1179 79 -371 271 -639 569 -800 168 -91 317 -123 569
-124 191 -1 261 11 350 59 40 22 225 172 330 268 19 18 87 74 150 125 l115 93
5 -236 c4 -167 9 -239 17 -247 10 -10 124 -13 477 -13 l465 -1 5 29 c3 16 6
48 6 72 l0 43 -52 10 c-29 5 -105 17 -168 26 -222 31 -242 64 -251 420 -14
518 0 3324 17 3500 6 59 5 61 -20 73 -35 16 -37 15 -134 -19z m-960 -1728
c177 -41 378 -156 547 -313 l62 -58 -2 -467 c-1 -476 -8 -601 -35 -708 -52
-209 -234 -423 -438 -515 -85 -39 -159 -50 -306 -48 -140 2 -199 14 -304 63
-267 125 -444 370 -517 718 -18 82 -22 137 -23 282 0 190 10 277 50 438 58
233 165 394 334 502 75 48 176 92 252 110 63 15 309 12 380 -4z"/>
<path d="M4510 4934 c-25 -7 -83 -25 -130 -40 -137 -43 -352 -92 -545 -124
-214 -35 -220 -39 -213 -132 2 -32 7 -60 10 -63 3 -3 63 -8 134 -10 256 -10
273 -14 293 -62 32 -81 35 -218 36 -1763 0 -1072 -6 -1607 -19 -1705 -3 -16
-7 -54 -11 -84 -8 -72 -29 -110 -71 -127 -19 -8 -98 -21 -177 -29 -78 -8 -150
-17 -159 -20 -20 -8 -33 -79 -23 -124 8 -37 -9 -34 235 -30 248 5 752 4 977
-1 100 -3 184 -2 188 1 11 12 18 77 11 113 -8 44 -33 52 -176 61 -127 7 -204
27 -224 58 -22 33 -34 99 -41 222 -4 61 -8 137 -11 170 -2 33 -7 282 -10 554
l-7 493 24 -7 c13 -4 40 -15 59 -25 47 -23 179 -66 263 -85 100 -23 395 -19
496 6 103 26 155 54 411 225 124 82 277 181 340 221 63 39 137 90 163 113 57
51 169 216 238 354 59 117 131 326 153 446 19 99 22 356 6 470 -60 425 -362
771 -765 875 -104 26 -242 41 -372 39 -183 -3 -353 -35 -433 -81 -44 -26 -176
-123 -215 -159 -11 -11 -52 -46 -90 -78 -39 -33 -74 -64 -80 -70 -30 -32 -177
-156 -185 -156 -5 0 -7 35 -5 83 5 78 7 118 21 354 l6 102 -29 14 c-24 12 -35
13 -73 1z m1008 -389 c196 -41 385 -147 492 -276 101 -121 168 -269 206 -454
13 -64 12 -400 -1 -485 -28 -178 -128 -417 -228 -548 -111 -143 -256 -237
-448 -289 -48 -13 -104 -17 -224 -17 -139 -1 -171 2 -240 23 -151 44 -300 125
-435 236 l-60 50 1 635 0 635 37 70 c66 126 265 303 407 362 68 28 173 61 210
66 74 10 216 6 283 -8z"/>
</g>
</svg>
